<?xml version="1.0" encoding="UTF-8"?>
<svg width="500px" height="447px" viewBox="0 0 500 447" version="1.1" xmlns="http://www.w3.org/2000/svg" xmlns:xlink="http://www.w3.org/1999/xlink">
    <!-- Generator: Sketch 53.2 (72643) - https://sketchapp.com -->
    <title>Group 3</title>
    <desc>Created with Sketch.</desc>
    <defs>
        <polygon id="path-1" points="0.000469063932 0 499.750969 0 499.750969 499.725 0.000469063932 499.725"></polygon>
    </defs>
    <g id="Welcome" stroke="none" stroke-width="1" fill="none" fill-rule="evenodd">
        <g id="Artboard" transform="translate(-176.000000, -2749.000000)">
            <g id="Strip-5-–-Keep-in-Touch" transform="translate(176.000000, 2554.000000)">
                <g id="Group-3" transform="translate(0.000000, 195.000000)">
                    <mask id="mask-2" fill="white">
                        <use xlink:href="#path-1"></use>
                    </mask>
                    <g id="Clip-2"></g>
                    <path d="M351.5227,127.3932 C352.3247,156.8952 353.7547,185.3422 355.7677,212.3542 C346.6727,195.5532 335.5377,176.4802 322.0327,154.8852 C319.9837,125.1862 319.0877,95.5212 319.3817,66.6692 C331.4247,87.9012 342.1827,108.2362 351.5227,127.3932 L351.5227,127.3932 Z M419.0587,211.8002 C418.8867,217.3882 418.3867,223.2642 417.6397,229.4112 C413.2967,208.2382 405.4767,184.9682 395.8907,161.5042 C394.7807,137.4852 394.0967,112.6052 393.8877,87.1012 C411.1477,136.6372 420.0467,179.8042 419.0587,211.8002 L419.0587,211.8002 Z M362.7517,282.0742 C363.9377,291.3862 365.2107,300.4212 366.5927,309.1822 C367.5047,315.1022 368.4817,320.8442 369.4637,326.4282 C368.0797,333.2112 365.4857,341.1732 361.7437,350.2132 C358.1377,340.6282 352.3887,328.9262 344.4747,315.1272 C337.0227,281.2202 331.0937,245.0322 326.8787,208.0992 C345.6267,241.0612 356.5327,264.9442 362.7517,282.0742 L362.7517,282.0742 Z M278.5847,333.4762 C267.1977,294.1932 258.4447,254.0542 252.6597,215.1232 C269.8977,238.3262 284.4137,258.7382 296.4447,276.5042 C300.3397,299.2552 304.8507,321.4292 310.0087,342.6262 C314.5287,361.2562 319.4277,378.5842 324.5347,394.3272 C315.7417,381.2962 301.5247,362.1092 278.5847,333.4762 L278.5847,333.4762 Z M313.4827,430.6092 C307.0187,416.2972 300.1047,399.1262 293.0267,378.8642 C307.4707,397.7812 317.6117,412.2852 321.0247,419.7152 C318.6267,423.2432 316.1067,426.8682 313.4827,430.6092 L313.4827,430.6092 Z M219.2027,375.0142 C200.9997,328.2942 187.3737,282.2542 179.0217,240.0792 C197.2517,261.4412 215.6847,283.2882 233.0137,304.1642 C238.8787,328.2292 245.7217,352.2062 253.4757,375.7132 C260.5557,397.1892 268.0787,417.1852 275.7437,435.1762 L219.2027,375.0142 Z M271.7177,485.6472 C260.4987,466.7502 247.2317,441.2832 233.3297,409.3452 L286.9037,466.3312 C281.9897,472.6882 276.9147,479.1602 271.7177,485.6472 L271.7177,485.6472 Z M100.1837,248.4342 C95.9167,227.3832 93.9307,208.5332 94.4257,192.4852 C94.8217,179.6792 96.7987,165.2702 100.2487,149.5932 C111.7137,162.4662 124.6347,177.1762 138.3597,192.9462 C142.6127,235.7312 152.8437,278.9002 164.0867,316.3872 L100.1837,248.4342 Z M34.9307,179.0252 C42.7527,159.0432 53.3957,136.6632 66.6027,112.4492 C69.4157,115.4622 72.6127,118.9242 76.1557,122.7952 C67.6717,153.9022 65.0787,176.6512 64.6187,191.5652 C64.4237,197.8692 64.5817,204.3622 64.9757,210.9622 L34.9307,179.0252 Z M74.9887,97.4022 C82.0807,84.9622 89.8017,72.1032 98.1107,58.9052 C91.3697,75.4762 85.9247,90.6542 81.5587,104.4522 C79.0737,101.7672 76.8967,99.4312 74.9887,97.4022 L74.9887,97.4022 Z M194.1967,13.4442 C199.8877,20.6062 206.0507,28.5592 212.5907,37.2012 C210.2997,56.6352 208.7987,75.5772 208.2387,93.7522 C207.9267,103.8532 207.8857,114.2222 208.1157,124.8182 C197.2897,111.2272 186.4937,97.9372 176.1707,85.4372 C180.3567,62.6582 186.4187,38.4622 194.1967,13.4442 L194.1967,13.4442 Z M136.5287,165.8602 C127.1257,155.1792 117.9697,144.8452 109.3317,135.1852 C107.8497,133.5272 106.4257,131.9292 105.0407,130.3942 C110.9347,109.0402 119.1957,85.7682 129.6077,61.1912 C133.9337,66.1402 138.7177,71.7032 143.8837,77.8132 C139.5897,100.8482 137.0457,122.6442 136.4287,142.6682 C136.1927,150.3042 136.2517,158.0482 136.5287,165.8602 L136.5287,165.8602 Z M169.5367,143.6912 C169.8497,133.5492 170.7167,122.8682 172.0947,111.7642 C183.8317,126.1582 196.5387,142.0152 209.7117,158.8632 C212.2457,194.1302 217.4307,231.2132 225.0357,268.5682 C218.1047,260.3332 210.7487,251.6662 202.9307,242.5082 C193.4037,231.3072 183.5477,219.8372 173.6307,208.3852 C170.3517,184.9962 168.9337,163.2172 169.5367,143.6912 L169.5367,143.6912 Z M273.4087,122.5942 C275.9977,126.4352 278.5077,130.2152 280.9417,133.9132 C282.5557,166.7642 285.4967,199.7952 289.7337,232.1112 C277.2527,214.7472 263.2637,195.9252 247.7687,175.6222 C244.9797,147.3322 243.8687,120.1292 244.6477,94.8752 C244.7807,90.5602 244.9957,86.1882 245.2307,81.7772 C254.3487,94.6182 263.7997,108.2852 273.4087,122.5942 L273.4087,122.5942 Z M280.0277,44.8542 C279.5647,59.8872 279.4707,75.1712 279.6517,90.5812 C269.3637,75.6742 258.7387,60.7172 248.2157,46.3412 C249.9157,31.2462 252.1247,15.7702 254.8587,0.0502 C242.2087,-0.2008 229.7667,0.4912 217.5767,2.0652 C217.4067,3.0742 217.2567,4.0652 217.0857,5.0752 C216.3767,4.1762 215.6687,3.2792 214.9987,2.4032 C195.3487,5.1402 176.4237,10.1892 158.4707,17.2572 C154.9097,29.4682 151.7717,41.4932 149.0407,53.2512 C145.0827,48.6512 141.5647,44.6222 138.4477,41.1222 C141.3507,34.7622 144.3757,28.3472 147.5417,21.8572 C63.1117,59.8152 3.1687,143.4132 0.1217,242.1612 C-2.5073,327.3282 37.8237,403.8692 101.5367,450.9372 C48.0127,358.8022 18.0267,282.4022 19.2947,241.2992 C19.7017,228.1352 23.3117,211.7872 29.8257,192.8792 L67.1157,232.5442 C77.3277,306.6642 115.7377,391.9432 140.3817,440.8512 C147.9017,455.7912 155.7097,470.4432 163.5787,484.4192 C176.7647,489.2652 190.4807,493.0332 204.6327,495.6192 C191.6577,474.2592 177.2507,448.3592 162.6407,418.7072 C136.8117,366.2802 117.6387,316.7852 106.2747,274.1982 L173.3577,345.5532 C182.1987,371.8812 190.8367,393.8032 196.9537,408.4422 C211.0747,442.3162 226.6507,474.1862 241.4917,499.5822 L242.1677,499.6042 C380.1097,503.8612 495.3737,395.4992 499.6297,257.5782 C501.6617,191.7582 478.0377,131.0792 437.7757,85.1722 C441.7097,109.9142 443.6047,133.0012 443.3627,153.7342 C437.7047,124.2212 428.3007,93.5782 417.5887,64.6652 L417.5897,64.6452 C398.0537,46.9452 375.6767,32.2612 351.1917,21.3942 C350.8617,37.2472 350.7157,52.9482 350.7147,68.4522 C343.5157,55.3722 336.5827,43.3162 330.3977,32.8342 C327.3337,27.6452 324.2287,22.4742 321.0837,17.3212 C321.2137,15.0362 321.3647,12.7322 321.5157,10.4272 C308.1837,6.4532 294.3797,3.5392 280.1817,1.8272 C280.7897,2.7822 281.3967,3.7362 282.0237,4.7092 C281.1297,18.1972 280.4367,31.6112 280.0277,44.8542 L280.0277,44.8542 Z" id="Fill-1" fill="#5BBA9F" mask="url(#mask-2)"></path>
                </g>
            </g>
        </g>
    </g>
</svg>